<?xml version="1.0" encoding="utf-8"?>
<!-- Generator: Adobe Illustrator 27.5.0, SVG Export Plug-In . SVG Version: 6.00 Build 0)  -->
<svg version="1.1" xmlns="http://www.w3.org/2000/svg" xmlns:xlink="http://www.w3.org/1999/xlink" x="0px" y="0px"
	 viewBox="0 0 500 500" style="enable-background:new 0 0 500 500;" xml:space="preserve">
<!-- <g id="BACKGROUND">
	<rect x="0" style="fill:#0F032F;" width="500" height="500"/>
</g> -->
<g id="OBJECTS">
	<g>
		<g>
			<path style="fill:#C83316;" d="M295.911,185.766c-1.705,10.901-8.46,19.758-17.509,24.561
				c-7.151-7.337-10.879-17.833-9.175-28.734c1.705-10.901,8.46-19.758,17.509-24.562
				C293.887,164.369,297.616,174.865,295.911,185.766z"/>
			<path style="opacity:0.2;fill:#370D32;" d="M295.911,185.766c0.577-3.691,0.518-7.332-0.073-10.824
				c-3.129,1.659-6.052,3.83-8.627,6.537c-7.606,7.993-10.514,18.746-8.809,28.848C287.451,205.524,294.206,196.667,295.911,185.766
				z"/>
			<path style="fill:#F84616;" d="M313.193,207.436c-10.906,6.643-23.782,7.296-34.791,2.891
				c1.137-11.803,7.623-22.944,18.53-29.588c10.906-6.643,23.782-7.296,34.791-2.891
				C330.585,189.652,324.099,200.793,313.193,207.436z"/>
			<path style="fill:#F84616;" d="M309.705,172.128c-2.867,1.746-6.252,1.918-9.147,0.76c0.299-3.103,2.004-6.032,4.872-7.779
				c2.867-1.747,6.252-1.918,9.147-0.76C314.278,167.452,312.572,170.381,309.705,172.128z"/>
			<path style="fill:#F84616;" d="M317.704,219.429c-3.346,0.279-6.45-1.083-8.52-3.414c1.656-2.641,4.492-4.497,7.838-4.776
				c3.346-0.279,6.45,1.083,8.52,3.414C323.885,217.294,321.049,219.15,317.704,219.429z"/>
			<path style="fill:#F84616;" d="M306.958,154.733c-0.955,4.316-3.877,7.687-7.615,9.381c-2.675-3.112-3.903-7.402-2.948-11.718
				c0.955-4.316,3.877-7.687,7.615-9.381C306.685,146.128,307.913,150.418,306.958,154.733z"/>
		</g>
		<g>
			<path style="fill:#FA811D;" d="M285.195,243.374c-10.895,1.747-21.405-1.94-28.77-9.062c4.768-9.068,13.598-15.858,24.493-17.605
				c10.895-1.747,21.405,1.94,28.77,9.063C304.92,234.838,296.09,241.627,285.195,243.374z"/>
			<path style="opacity:0.2;fill:#370D32;" d="M285.195,243.374c3.689-0.592,7.134-1.773,10.272-3.414
				c-2.544-2.463-5.513-4.572-8.883-6.185c-9.952-4.764-21.077-4.206-30.159,0.536C263.79,241.434,274.301,245.122,285.195,243.374z
				"/>
			<path style="fill:#FAD01D;" d="M269.926,266.507c-9.688-8.32-14.288-20.363-13.501-32.195c11.577-2.566,24.177,0.16,33.865,8.48
				c9.688,8.32,14.288,20.363,13.501,32.195C292.215,277.552,279.615,274.826,269.926,266.507z"/>
			<path style="fill:#FAD01D;" d="M302.429,252.279c-2.547-2.187-3.756-5.354-3.549-8.464c3.044-0.675,6.356,0.042,8.903,2.229
				s3.756,5.354,3.549,8.464C308.289,255.183,304.976,254.466,302.429,252.279z"/>
			<path style="fill:#FAD01D;" d="M259.914,274.503c-1.299-3.096-0.963-6.469,0.614-9.158c3.024,0.759,5.665,2.882,6.964,5.978
				c1.299,3.096,0.963,6.469-0.614,9.158C263.855,279.722,261.213,277.599,259.914,274.503z"/>
			<path style="fill:#FAD01D;" d="M318.123,244.291c-4.399,0.426-8.509-1.312-11.275-4.344c2.134-3.506,5.834-5.999,10.233-6.425
				c4.399-0.426,8.509,1.312,11.275,4.344C326.223,241.372,322.523,243.865,318.123,244.291z"/>
		</g>
		<g>
			<path style="fill:#008560;" d="M227.095,250.985c-5.028-9.821-4.769-20.957-0.271-30.162
				c10.098,1.733,19.284,8.033,24.312,17.854c5.028,9.821,4.769,20.957,0.271,30.162
				C241.31,267.107,232.124,260.807,227.095,250.985z"/>
			<path style="opacity:0.2;fill:#370D32;" d="M227.095,250.985c1.703,3.326,3.891,6.236,6.421,8.714
				c1.556-3.181,2.645-6.656,3.137-10.359c1.455-10.937-2.513-21.346-9.83-28.517C222.326,230.028,222.067,241.164,227.095,250.985z
				"/>
			<path style="fill:#05B178;" d="M200.377,243.612c4.919-11.785,14.951-19.881,26.447-22.789c6.018,10.217,7.319,23.043,2.4,34.828
				c-4.918,11.785-14.951,19.881-26.447,22.789C196.759,268.223,195.458,255.397,200.377,243.612z"/>
			<path style="fill:#05B178;" d="M223.952,270.127c1.293-3.098,3.931-5.227,6.953-5.991c1.582,2.686,1.924,6.058,0.631,9.157
				c-1.293,3.098-3.931,5.227-6.953,5.991C223.001,276.597,222.659,273.225,223.952,270.127z"/>
			<path style="fill:#05B178;" d="M189.678,236.561c2.543-2.192,5.854-2.915,8.899-2.246c0.213,3.11-0.991,6.279-3.534,8.471
				c-2.543,2.192-5.854,2.915-8.899,2.246C185.932,241.921,187.135,238.753,189.678,236.561z"/>
			<path style="fill:#05B178;" d="M236.399,282.585c-1.764-4.052-1.382-8.498,0.647-12.065c3.993,0.946,7.508,3.694,9.272,7.747
				c1.764,4.052,1.382,8.498-0.647,12.065C241.678,289.386,238.163,286.637,236.399,282.585z"/>
		</g>
		<g>
			<path style="fill:#8B41D3;" d="M201.903,198.081c7.787-7.817,18.458-11.012,28.602-9.579c1.473,10.139-1.68,20.822-9.467,28.639
				c-7.787,7.817-18.458,11.012-28.602,9.579C190.963,216.581,194.116,205.898,201.903,198.081z"/>
			<path style="opacity:0.2;fill:#370D32;" d="M201.903,198.081c-2.637,2.647-4.729,5.627-6.303,8.799
				c3.506,0.497,7.147,0.459,10.822-0.217c10.852-1.996,19.524-8.986,24.084-18.161C220.361,187.069,209.69,190.264,201.903,198.081
				z"/>
			<path style="fill:#D05AF1;" d="M200.66,170.391c12.728,1.036,23.528,8.076,29.846,18.111
				c-7.857,8.881-19.654,14.081-32.382,13.046c-12.728-1.036-23.528-8.076-29.846-18.111
				C176.135,174.556,187.931,169.355,200.66,170.391z"/>
			<path style="fill:#D05AF1;" d="M182.727,201.007c3.346,0.272,6.186,2.123,7.847,4.761c-2.066,2.335-5.167,3.702-8.513,3.43
				c-3.346-0.272-6.186-2.123-7.847-4.761C176.28,202.102,179.381,200.734,182.727,201.007z"/>
			<path style="fill:#D05AF1;" d="M204.059,158.038c2.871,1.741,4.581,4.667,4.886,7.77c-2.892,1.163-6.278,0.998-9.148-0.743
				c-2.871-1.741-4.581-4.667-4.886-7.77C197.803,156.131,201.189,156.296,204.059,158.038z"/>
			<path style="fill:#D05AF1;" d="M174.725,216.694c3.309-2.93,7.655-3.94,11.675-3.113c0.335,4.09-1.194,8.282-4.502,11.213
				c-3.309,2.93-7.655,3.94-11.675,3.113C169.888,223.816,171.416,219.624,174.725,216.694z"/>
		</g>
		<g>
			<path style="fill:#027DFF;" d="M244.434,157.773c9.841,4.99,16.177,14.151,17.949,24.242c-9.188,4.534-20.322,4.836-30.163-0.154
				c-9.841-4.99-16.177-14.151-17.949-24.242C223.458,153.086,234.593,152.783,244.434,157.773z"/>
			<path style="opacity:0.2;fill:#370D32;" d="M244.434,157.773c-3.332-1.69-6.813-2.758-10.316-3.276
				c0.611,3.488,1.773,6.939,3.551,10.225c5.252,9.704,14.58,15.792,24.714,17.293C260.61,171.924,254.274,162.763,244.434,157.773z
				"/>
			<path style="fill:#02A8FF;" d="M270.384,148.034c2.948,12.425-0.41,24.872-8.001,33.982
				c-10.874-4.729-19.465-14.34-22.413-26.766c-2.948-12.425,0.41-24.872,8.001-33.982
				C258.844,125.997,267.436,135.609,270.384,148.034z"/>
			<path style="fill:#02A8FF;" d="M235.725,140.44c0.775,3.267-0.108,6.539-2.104,8.934c-2.859-1.243-5.118-3.77-5.893-7.037
				c-0.775-3.267,0.108-6.539,2.104-8.934C232.691,134.646,234.95,137.173,235.725,140.44z"/>
			<path style="fill:#02A8FF;" d="M283.183,147.45c-0.769,3.268-3.023,5.799-5.88,7.048c-2-2.391-2.889-5.662-2.12-8.93
				c0.769-3.268,3.023-5.799,5.879-7.048C283.063,140.911,283.952,144.182,283.183,147.45z"/>
			<path style="fill:#02A8FF;" d="M218.333,137.677c3.809,2.242,6.113,6.063,6.568,10.142c-3.787,1.582-8.246,1.424-12.055-0.817
				c-3.809-2.242-6.113-6.063-6.568-10.142C210.065,135.278,214.524,135.436,218.333,137.677z"/>
		</g>
	</g>
	<g>
		<!-- <text transform="matrix(1 0 0 1 78.0652 339.4136)"><tspan x="0" y="0" style="fill:#FFFFFF; font-family:'Dongle-Light'; font-size:70.9507px; letter-spacing:7;">CULTURE</tspan><tspan x="227.748" y="0" style="fill:#05B178; font-family:'Dongle-Bold'; font-size:70.9507px; letter-spacing:7;">F</tspan><tspan x="257.901" y="0" style="fill:#FAD01D; font-family:'Dongle-Bold'; font-size:70.9507px; letter-spacing:7;">E</tspan><tspan x="288.765" y="0" style="fill:#F84616; font-family:'Dongle-Bold'; font-size:70.9507px; letter-spacing:7;">S</tspan><tspan x="321.401" y="0" style="fill:#02A8FF; font-family:'Dongle-Bold'; font-size:70.9507px; letter-spacing:7;">T</tspan></text> -->
		<g>
			
				<text transform="matrix(1 0 0 1 110.3599 365.5758)" style="fill:#A3C3D0; font-family:'Dongle-Bold'; font-size:28.6009px; letter-spacing:2;">Eventry Management</text>
		</g>
	</g>
</g>
</svg>
